# xmcd
#
# Track frame offsets:
#	150
#	10446
#	23119
#	32648
#	45994
#	60623
#	72393
#	81470
#	96320
#	106219
#	115894
#	131312
#	142669
#	155249
#	170106
#	184900
#	198021
#	206188
#	221676
#	234428
#	246973
#	257540
#	269094
#
# Disc length: 3739 seconds
#
# Revision: 0
# Processed by: cddbd v1.5.2PL0 Copyright (c) Steve Scherf et al.
# Submitted via: EasyCDDAExtractor 16.0.6.1
#
DISCID=510e9917
DTITLE=Κωχ Μαρίζα - Μιά στο καρφί και μιά στο πέταλο[1-11, 1973]-Άσε να ταξιδέ
DTITLE=ψω[12-23, 1977]
DYEAR=2000
DGENRE=Ποικίλη
TTITLE0=Κωχ Μαρίζα - Καροτσέρη τράβα [διασκ. Μ. Κωχ]
TTITLE1=Κωχ Μαρίζα - Μιά στο καρφί και μιά στο πέταλο [ΜΚωχ]
TTITLE2=Κωχ Μαρίζα - Σαράντα μέρες [διασκ. Μ. Κωχ]
TTITLE3=Κωχ Μαρίζα - Οι παλιοί μας φίλοι [Δ. Σαββόπουλου]
TTITLE4=Κωχ Μαρίζα - Στό 'πα και στο ξαναλέω [διασκ. Μ. Κωχ]
TTITLE5=Κωχ Μαρίζα - Έλα βράδυ αγαπημένο [Μ. Κωχ]
TTITLE6=Κωχ Μαρίζα - Τ' αλωνάκι [Γ. Μαρκόπουλου-Ο. Ελύτη]
TTITLE7=Κωχ Μαρίζα - Φιλντισοκοκκαλένια [διασκ. Μ. Κωχ]
TTITLE8=Κωχ Μαρίζα - Δώδεκα μήνες στο στρατό [διασκ. Μ. Κωχ]
TTITLE9=Κωχ Μαρίζα - Του ήλιου τα τραγούδια [ΓΚαλαμαριώτη]
TTITLE10=Κωχ Μαρίζα - Μαγική μαστίχα [Μ. Κωχ]
TTITLE11=Κωχ Μαρίζα - Κι εσύ τρελλή με τυραννάς [Μ. Κωχ]
TTITLE12=Κωχ Μαρίζα - Νέα Μαινεμένη [Μ. Κωχ-Μ. Φωτιάδη]
TTITLE13=Κωχ Μαρίζα - Πες τα μας φίλε, πες τα μας [Μ. Κωχ]
TTITLE14=Κωχ Μαρίζα - Το δεντράκι [Μ. Κωχ]
TTITLE15=Κωχ Μαρίζα - Στον Διονύση [Μ. Κωχ]
TTITLE16=Κωχ Μαρίζα - Βγες ένα βήμα μπροστά [Μ. Κωχ]
TTITLE17=Κωχ Μαρίζα - Κάθε βράδυ λυπημένη [Β. Τσιτσάνη]
TTITLE18=Κωχ Μαρίζα - Ασ' τα παράπονα [Π. Χαρβάς]
TTITLE19=Κωχ Μαρίζα - Μακρύ ταξείδι [Μ. Κωχ]
TTITLE20=Κωχ Μαρίζα - Αληθινά στο λέω [Μ. Κωχ]
TTITLE21=Κωχ Μαρίζα - Έλα βράδυ αγαπημένο [Μ. Κωχ]
TTITLE22=Άνευ ερμηνευτού - Στο πάλκο τ' ουρανού [ορχ. Μ. Κωχ]
EXTD=
EXTT0=
EXTT1=
EXTT2=
EXTT3=
EXTT4=
EXTT5=
EXTT6=
EXTT7=
EXTT8=
EXTT9=
EXTT10=
EXTT11=
EXTT12=
EXTT13=
EXTT14=
EXTT15=
EXTT16=
EXTT17=
EXTT18=
EXTT19=
EXTT20=
EXTT21=
EXTT22=
PLAYORDER=
